<svg width="1395" height="393" viewBox="0 0 1395 393" fill="none" xmlns="http://www.w3.org/2000/svg">
<path d="M301.768 82.1819C301.768 77.8239 291.599 72.0129 291.599 72.0129C285.061 68.3799 280.703 66.2009 280.703 66.2009L224.771 63.2949C224.771 63.2949 210.243 77.8239 211.696 98.8889C212.777 114.566 246.563 109.603 246.563 109.603C250.195 101.613 271.261 93.8049 271.261 93.8049C277.072 90.8999 290.147 91.6249 290.147 91.6249C304.674 90.1719 301.768 82.1819 301.768 82.1819Z" fill="#DB6C61"/>
<path d="M292.324 44.4094C283.606 45.8624 268.353 45.8624 268.353 45.8624C253.098 45.8624 248.74 34.4834 248.74 34.4834C219.684 38.8414 219.684 91.6264 219.684 91.6264C234.938 89.4474 253.583 87.2684 269.806 82.1844C286.028 77.0994 302.494 50.2224 302.494 50.2224C310.484 39.3244 292.324 44.4094 292.324 44.4094Z" fill="#E66D59"/>
<path d="M308.117 206.409C303.271 166.253 261.089 148.283 251.161 135.692C241.234 123.102 247.286 108.573 247.286 108.573C224.041 117.29 221.136 84.3602 221.136 84.3602C220.167 73.7062 235.664 72.7372 240.507 65.9582C244.236 60.7382 246.957 48.3162 248.739 42.2292C249.271 40.4112 253.097 40.7762 253.097 40.7762C201.766 -39.6118 132.879 22.9802 124.851 31.5162C71.2803 88.4812 148.82 151.366 148.82 151.366C90.3843 166.442 61.5413 152.935 55.1203 142.648C11.9333 73.4642 0.311251 143.44 0.311251 143.44C-5.49975 282.908 71.9822 301.311 71.9822 301.311C165.929 337.146 241.018 308.409 253.096 303.732C296.117 287.076 312.784 245.076 308.117 206.409Z" fill="#F3DB74"/>
<path d="M209.03 59.6618C216.784 59.6618 223.07 53.2658 223.07 45.3758C223.07 37.4859 216.784 31.0898 209.03 31.0898C201.276 31.0898 194.99 37.4859 194.99 45.3758C194.99 53.2658 201.276 59.6618 209.03 59.6618Z" fill="#DBDBDB"/>
<path d="M209.03 53.7264C213.563 53.7264 217.238 49.9879 217.238 45.3764C217.238 40.7648 213.563 37.0264 209.03 37.0264C204.497 37.0264 200.822 40.7648 200.822 45.3764C200.822 49.9879 204.497 53.7264 209.03 53.7264Z" fill="#606060"/>
<path d="M210.481 45.1692C212.34 45.1692 213.847 43.6367 213.847 41.7462C213.847 39.8558 212.34 38.3232 210.481 38.3232C208.622 38.3232 207.115 39.8558 207.115 41.7462C207.115 43.6367 208.622 45.1692 210.481 45.1692Z" fill="#D3D3D3"/>
<path d="M266.119 159.743C266.119 159.743 300.786 212.41 282.786 269.743C282.786 269.743 333.453 203.743 266.119 159.743Z" fill="white"/>
<path d="M12.1182 148.076C12.1182 148.076 10.1182 258.076 74.1182 287.076C74.1182 287.076 29.1182 230.076 12.1182 148.076Z" fill="white"/>
<path d="M118.118 60.0762C118.118 60.0762 110.118 124.076 172.118 148.076C172.118 148.076 132.118 114.076 118.118 60.0762Z" fill="white"/>
<path d="M491.848 247.053C490.09 250.959 487.844 254.475 485.109 257.6C482.473 260.725 479.592 263.41 476.467 265.656C473.342 267.805 470.119 269.465 466.799 270.637C463.479 271.906 460.305 272.541 457.277 272.541C451.613 272.541 446.828 271.564 442.922 269.611C439.016 267.658 435.842 265.021 433.4 261.701C430.959 258.381 429.201 254.475 428.127 249.982C427.053 245.49 426.516 240.705 426.516 235.627C426.516 231.721 426.809 227.668 427.395 223.469C427.98 219.27 428.811 215.217 429.885 211.311C430.08 210.725 430.275 210.041 430.471 209.26C430.666 208.381 430.764 207.648 430.764 207.062C430.764 206.574 430.471 206.184 429.885 205.891C428.225 205.305 426.467 204.768 424.611 204.279C422.756 203.693 420.9 203.059 419.045 202.375C417.287 201.691 415.578 200.91 413.918 200.031C412.355 199.152 410.988 198.029 409.816 196.662C409.719 202.521 408.742 208.479 406.887 214.533C405.031 220.49 402.541 226.252 399.416 231.818C396.389 237.287 392.824 242.414 388.723 247.199C384.621 251.984 380.275 256.135 375.686 259.65L374.221 258.186C377.053 255.061 379.641 251.35 381.984 247.053C384.328 242.756 386.33 238.264 387.99 233.576C389.65 228.889 390.92 224.152 391.799 219.367C392.775 214.582 393.264 210.09 393.264 205.891C393.264 203.742 393.068 201.74 392.678 199.885C392.287 197.932 391.848 196.076 391.359 194.318C390.969 192.561 390.578 190.9 390.188 189.338C389.797 187.678 389.602 186.018 389.602 184.357C389.602 181.623 390.48 179.475 392.238 177.912C393.996 176.35 396.242 175.568 398.977 175.568C400.441 175.568 401.564 176.008 402.346 176.887C403.127 177.668 403.811 178.645 404.396 179.816C404.982 180.988 405.666 182.209 406.447 183.479C407.229 184.748 408.352 185.822 409.816 186.701C411.672 187.775 414.016 188.557 416.848 189.045C419.68 189.533 422.658 189.973 425.783 190.363C428.908 190.754 432.033 191.145 435.158 191.535C438.283 191.926 441.066 192.609 443.508 193.586C446.047 194.465 448.098 195.734 449.66 197.395C451.223 198.957 452.004 201.105 452.004 203.84C452.004 205.207 451.857 206.574 451.564 207.941C451.369 209.211 451.027 210.432 450.539 211.604C449.367 215.705 448.342 219.904 447.463 224.201C446.682 228.4 446.291 232.6 446.291 236.799C446.291 240.412 446.535 243.732 447.023 246.76C447.609 249.689 448.635 252.229 450.1 254.377C451.564 256.525 453.518 258.186 455.959 259.357C458.4 260.529 461.525 261.115 465.334 261.115C470.803 261.115 475.588 259.797 479.689 257.16C483.791 254.426 487.404 250.861 490.529 246.467L491.848 247.053ZM602.004 247.053C600.344 250.471 598.098 253.742 595.266 256.867C592.434 259.992 589.26 262.824 585.744 265.363C582.229 267.805 578.518 269.758 574.611 271.223C570.705 272.688 566.848 273.42 563.039 273.42C557.766 273.42 553.371 271.809 549.855 268.586C546.438 265.461 543.898 261.652 542.238 257.16C538.43 260.969 534.23 264.143 529.641 266.682C525.051 269.123 519.973 270.344 514.406 270.344C509.426 270.344 504.982 269.465 501.076 267.707C497.268 265.852 494.094 263.361 491.555 260.236C489.016 257.111 487.062 253.498 485.695 249.396C484.426 245.295 483.791 240.9 483.791 236.213C483.791 230.939 484.523 225.812 485.988 220.832C487.453 215.754 489.504 210.969 492.141 206.477C494.777 201.887 497.902 197.639 501.516 193.732C505.129 189.826 509.035 186.359 513.234 183.332L514.992 184.65C510.891 190.51 507.619 197.004 505.178 204.133C502.736 211.164 501.516 218.342 501.516 225.666C501.516 228.791 501.857 232.111 502.541 235.627C503.225 239.143 504.348 242.414 505.91 245.441C507.473 248.469 509.523 251.008 512.062 253.059C514.699 255.012 517.971 255.988 521.877 255.988C525.197 255.988 528.371 255.451 531.398 254.377C534.426 253.205 537.355 251.643 540.188 249.689C539.992 248.518 539.846 247.395 539.748 246.32C539.65 245.148 539.602 243.977 539.602 242.805C539.602 238.117 540.285 233.039 541.652 227.57C543.02 222.102 544.826 216.682 547.072 211.311C549.318 205.842 551.857 200.666 554.689 195.783C557.619 190.803 560.598 186.555 563.625 183.039L565.383 184.357C563.137 191.877 561.281 199.641 559.816 207.648C558.352 215.656 557.619 223.566 557.619 231.379C557.619 234.895 557.814 238.312 558.205 241.633C558.693 244.855 559.621 247.785 560.988 250.422C562.453 252.961 564.455 255.012 566.994 256.574C569.533 258.039 572.902 258.771 577.102 258.771C581.789 258.771 586.184 257.6 590.285 255.256C594.387 252.814 598 249.885 601.125 246.467L602.004 247.053ZM691.652 86.5059C691.652 93.2441 690.676 99.9336 688.723 106.574C686.867 113.117 684.279 119.514 680.959 125.764C677.639 131.916 673.684 137.824 669.094 143.488C664.602 149.055 659.719 154.23 654.445 159.016C649.172 163.703 643.654 168 637.893 171.906C632.131 175.715 626.369 178.889 620.607 181.428L619.582 179.23C626.809 175.812 633.693 170.979 640.236 164.729C646.877 158.381 652.688 151.301 657.668 143.488C662.746 135.578 666.75 127.277 669.68 118.586C672.707 109.895 674.221 101.398 674.221 93.0977C674.221 91.4375 674.074 89.7285 673.781 87.9707C673.586 86.2129 673.098 84.6016 672.316 83.1367C671.633 81.6719 670.656 80.5 669.387 79.6211C668.117 78.6445 666.457 78.1562 664.406 78.1562C658.645 78.1562 653.322 80.1094 648.439 84.0156C643.557 87.9219 639.113 93.1465 635.109 99.6895C631.203 106.135 627.736 113.557 624.709 121.955C621.682 130.354 619.143 138.996 617.092 147.883C615.041 156.77 613.479 165.559 612.404 174.25C611.428 182.941 610.939 190.9 610.939 198.127C610.939 201.936 611.135 206.184 611.525 210.871C612.014 215.461 612.795 220.1 613.869 224.787C615.041 229.475 616.506 234.064 618.264 238.557C620.119 242.951 622.414 246.857 625.148 250.275C627.98 253.693 631.301 256.477 635.109 258.625C638.918 260.676 643.361 261.701 648.439 261.701C651.662 261.701 654.396 261.066 656.643 259.797C658.986 258.527 660.842 256.818 662.209 254.67C663.674 252.521 664.748 250.08 665.432 247.346C666.115 244.611 666.457 241.828 666.457 238.996C666.457 234.602 665.822 229.963 664.553 225.08C663.381 220.197 661.525 215.754 658.986 211.75C656.545 207.746 653.42 204.426 649.611 201.789C645.803 199.152 641.311 197.834 636.135 197.834C634.67 197.834 633.156 197.98 631.594 198.273C630.129 198.469 628.664 198.811 627.199 199.299L626.32 197.834C629.934 195.1 633.84 192.805 638.039 190.949C642.336 188.996 646.828 188.02 651.516 188.02C656.496 188.02 660.939 189.094 664.846 191.242C668.752 193.391 672.023 196.174 674.66 199.592C677.395 203.01 679.445 206.965 680.812 211.457C682.277 215.852 683.01 220.295 683.01 224.787C683.01 231.525 681.838 237.824 679.494 243.684C677.248 249.543 674.074 254.67 669.973 259.064C665.871 263.361 660.939 266.73 655.178 269.172C649.514 271.613 643.264 272.834 636.428 272.834C630.568 272.834 625.393 271.76 620.9 269.611C616.506 267.561 612.648 264.777 609.328 261.262C606.008 257.746 603.225 253.693 600.979 249.104C598.732 244.416 596.926 239.533 595.559 234.455C594.191 229.279 593.215 224.104 592.629 218.928C592.043 213.752 591.75 208.82 591.75 204.133C591.75 195.539 592.482 186.164 593.947 176.008C595.51 165.852 597.756 155.695 600.686 145.539C603.713 135.285 607.473 125.422 611.965 115.949C616.555 106.379 621.828 97.9316 627.785 90.6074C633.84 83.2832 640.627 77.4238 648.146 73.0293C655.666 68.6348 663.967 66.4375 673.049 66.4375C679.396 66.4375 684.084 68.293 687.111 72.0039C690.139 75.6172 691.652 80.4512 691.652 86.5059ZM794.777 86.5059C794.777 93.2441 793.801 99.9336 791.848 106.574C789.992 113.117 787.404 119.514 784.084 125.764C780.764 131.916 776.809 137.824 772.219 143.488C767.727 149.055 762.844 154.23 757.57 159.016C752.297 163.703 746.779 168 741.018 171.906C735.256 175.715 729.494 178.889 723.732 181.428L722.707 179.23C729.934 175.812 736.818 170.979 743.361 164.729C750.002 158.381 755.812 151.301 760.793 143.488C765.871 135.578 769.875 127.277 772.805 118.586C775.832 109.895 777.346 101.398 777.346 93.0977C777.346 91.4375 777.199 89.7285 776.906 87.9707C776.711 86.2129 776.223 84.6016 775.441 83.1367C774.758 81.6719 773.781 80.5 772.512 79.6211C771.242 78.6445 769.582 78.1562 767.531 78.1562C761.77 78.1562 756.447 80.1094 751.564 84.0156C746.682 87.9219 742.238 93.1465 738.234 99.6895C734.328 106.135 730.861 113.557 727.834 121.955C724.807 130.354 722.268 138.996 720.217 147.883C718.166 156.77 716.604 165.559 715.529 174.25C714.553 182.941 714.064 190.9 714.064 198.127C714.064 201.936 714.26 206.184 714.65 210.871C715.139 215.461 715.92 220.1 716.994 224.787C718.166 229.475 719.631 234.064 721.389 238.557C723.244 242.951 725.539 246.857 728.273 250.275C731.105 253.693 734.426 256.477 738.234 258.625C742.043 260.676 746.486 261.701 751.564 261.701C754.787 261.701 757.521 261.066 759.768 259.797C762.111 258.527 763.967 256.818 765.334 254.67C766.799 252.521 767.873 250.08 768.557 247.346C769.24 244.611 769.582 241.828 769.582 238.996C769.582 234.602 768.947 229.963 767.678 225.08C766.506 220.197 764.65 215.754 762.111 211.75C759.67 207.746 756.545 204.426 752.736 201.789C748.928 199.152 744.436 197.834 739.26 197.834C737.795 197.834 736.281 197.98 734.719 198.273C733.254 198.469 731.789 198.811 730.324 199.299L729.445 197.834C733.059 195.1 736.965 192.805 741.164 190.949C745.461 188.996 749.953 188.02 754.641 188.02C759.621 188.02 764.064 189.094 767.971 191.242C771.877 193.391 775.148 196.174 777.785 199.592C780.52 203.01 782.57 206.965 783.938 211.457C785.402 215.852 786.135 220.295 786.135 224.787C786.135 231.525 784.963 237.824 782.619 243.684C780.373 249.543 777.199 254.67 773.098 259.064C768.996 263.361 764.064 266.73 758.303 269.172C752.639 271.613 746.389 272.834 739.553 272.834C733.693 272.834 728.518 271.76 724.025 269.611C719.631 267.561 715.773 264.777 712.453 261.262C709.133 257.746 706.35 253.693 704.104 249.104C701.857 244.416 700.051 239.533 698.684 234.455C697.316 229.279 696.34 224.104 695.754 218.928C695.168 213.752 694.875 208.82 694.875 204.133C694.875 195.539 695.607 186.164 697.072 176.008C698.635 165.852 700.881 155.695 703.811 145.539C706.838 135.285 710.598 125.422 715.09 115.949C719.68 106.379 724.953 97.9316 730.91 90.6074C736.965 83.2832 743.752 77.4238 751.271 73.0293C758.791 68.6348 767.092 66.4375 776.174 66.4375C782.521 66.4375 787.209 68.293 790.236 72.0039C793.264 75.6172 794.777 80.4512 794.777 86.5059ZM892.922 247.053C890.383 250.764 887.307 254.23 883.693 257.453C880.178 260.676 876.271 263.459 871.975 265.803C867.775 268.146 863.332 270.002 858.645 271.369C854.055 272.736 849.416 273.42 844.729 273.42C838.088 273.42 831.887 272.541 826.125 270.783C820.363 269.123 815.334 266.535 811.037 263.02C806.74 259.504 803.371 255.109 800.93 249.836C798.488 244.465 797.268 238.215 797.268 231.086C797.268 224.055 798.537 217.512 801.076 211.457C803.713 205.305 807.277 199.982 811.77 195.49C816.359 190.9 821.73 187.287 827.883 184.65C834.035 182.014 840.627 180.695 847.658 180.695C850.979 180.695 854.055 181.184 856.887 182.16C859.816 183.039 862.355 184.406 864.504 186.262C866.652 188.02 868.312 190.217 869.484 192.854C870.754 195.49 871.389 198.518 871.389 201.936C871.389 206.037 870.559 209.65 868.898 212.775C867.238 215.9 865.041 218.635 862.307 220.979C859.572 223.322 856.447 225.275 852.932 226.838C849.514 228.4 845.9 229.67 842.092 230.646C838.381 231.623 834.67 232.355 830.959 232.844C827.346 233.234 824.025 233.43 820.998 233.43H817.482C818.752 242.316 822.268 249.104 828.029 253.791C833.791 258.479 841.75 260.822 851.906 260.822C859.133 260.822 866.164 259.553 873 257.014C879.934 254.475 886.184 250.959 891.75 246.467L892.922 247.053ZM817.043 229.035H820.705C824.221 229.035 827.834 228.498 831.545 227.424C835.256 226.252 838.576 224.592 841.506 222.443C844.533 220.197 847.023 217.463 848.977 214.24C850.93 211.018 851.906 207.355 851.906 203.254C851.906 199.25 851.027 195.93 849.27 193.293C847.609 190.656 844.68 189.338 840.48 189.338C836.184 189.338 832.521 190.656 829.494 193.293C826.564 195.832 824.172 199.006 822.316 202.814C820.461 206.525 819.094 210.48 818.215 214.68C817.434 218.781 817.043 222.443 817.043 225.666V229.035ZM998.391 247.053C996.633 250.959 994.387 254.475 991.652 257.6C989.016 260.725 986.135 263.41 983.01 265.656C979.885 267.805 976.662 269.465 973.342 270.637C970.021 271.906 966.848 272.541 963.82 272.541C958.156 272.541 953.371 271.564 949.465 269.611C945.559 267.658 942.385 265.021 939.943 261.701C937.502 258.381 935.744 254.475 934.67 249.982C933.596 245.49 933.059 240.705 933.059 235.627C933.059 231.721 933.352 227.668 933.938 223.469C934.523 219.27 935.354 215.217 936.428 211.311C936.623 210.725 936.818 210.041 937.014 209.26C937.209 208.381 937.307 207.648 937.307 207.062C937.307 206.574 937.014 206.184 936.428 205.891C934.768 205.305 933.01 204.768 931.154 204.279C929.299 203.693 927.443 203.059 925.588 202.375C923.83 201.691 922.121 200.91 920.461 200.031C918.898 199.152 917.531 198.029 916.359 196.662C916.262 202.521 915.285 208.479 913.43 214.533C911.574 220.49 909.084 226.252 905.959 231.818C902.932 237.287 899.367 242.414 895.266 247.199C891.164 251.984 886.818 256.135 882.229 259.65L880.764 258.186C883.596 255.061 886.184 251.35 888.527 247.053C890.871 242.756 892.873 238.264 894.533 233.576C896.193 228.889 897.463 224.152 898.342 219.367C899.318 214.582 899.807 210.09 899.807 205.891C899.807 203.742 899.611 201.74 899.221 199.885C898.83 197.932 898.391 196.076 897.902 194.318C897.512 192.561 897.121 190.9 896.73 189.338C896.34 187.678 896.145 186.018 896.145 184.357C896.145 181.623 897.023 179.475 898.781 177.912C900.539 176.35 902.785 175.568 905.52 175.568C906.984 175.568 908.107 176.008 908.889 176.887C909.67 177.668 910.354 178.645 910.939 179.816C911.525 180.988 912.209 182.209 912.99 183.479C913.771 184.748 914.895 185.822 916.359 186.701C918.215 187.775 920.559 188.557 923.391 189.045C926.223 189.533 929.201 189.973 932.326 190.363C935.451 190.754 938.576 191.145 941.701 191.535C944.826 191.926 947.609 192.609 950.051 193.586C952.59 194.465 954.641 195.734 956.203 197.395C957.766 198.957 958.547 201.105 958.547 203.84C958.547 205.207 958.4 206.574 958.107 207.941C957.912 209.211 957.57 210.432 957.082 211.604C955.91 215.705 954.885 219.904 954.006 224.201C953.225 228.4 952.834 232.6 952.834 236.799C952.834 240.412 953.078 243.732 953.566 246.76C954.152 249.689 955.178 252.229 956.643 254.377C958.107 256.525 960.061 258.186 962.502 259.357C964.943 260.529 968.068 261.115 971.877 261.115C977.346 261.115 982.131 259.797 986.232 257.16C990.334 254.426 993.947 250.861 997.072 246.467L998.391 247.053ZM1101.66 373.908C1100.29 376.252 1098.68 378.498 1096.83 380.646C1095.07 382.893 1093.02 384.846 1090.68 386.506C1088.43 388.264 1085.99 389.631 1083.35 390.607C1080.71 391.682 1077.93 392.219 1075 392.219C1069.73 392.219 1065.09 391.291 1061.09 389.436C1057.18 387.678 1053.76 385.285 1050.83 382.258C1047.9 379.23 1045.46 375.715 1043.51 371.711C1041.65 367.805 1040.14 363.605 1038.97 359.113C1037.79 354.719 1036.96 350.227 1036.48 345.637C1035.99 341.047 1035.74 336.652 1035.74 332.453C1035.74 326.984 1035.99 321.076 1036.48 314.729C1036.96 308.479 1037.7 302.033 1038.67 295.393C1039.75 288.85 1041.07 282.209 1042.63 275.471C1044.19 268.83 1046.1 262.434 1048.34 256.281C1044.24 260.676 1039.6 264.338 1034.43 267.268C1029.25 270.197 1023.78 271.662 1018.02 271.662C1013.92 271.662 1010.26 270.881 1007.03 269.318C1003.91 267.854 1001.27 265.852 999.123 263.312C996.975 260.773 995.314 257.795 994.143 254.377C993.068 250.861 992.531 247.199 992.531 243.391C992.531 238.996 993.215 234.455 994.582 229.768C995.949 224.982 997.854 220.393 1000.29 215.998C1002.83 211.506 1005.81 207.307 1009.23 203.4C1012.65 199.396 1016.36 195.93 1020.36 193C1024.37 189.973 1028.62 187.629 1033.11 185.969C1037.6 184.211 1042.19 183.332 1046.88 183.332C1049.22 183.332 1051.61 183.674 1054.05 184.357C1056.5 184.943 1058.69 185.871 1060.65 187.141C1062.6 188.41 1064.16 190.021 1065.33 191.975C1066.6 193.928 1067.24 196.271 1067.24 199.006C1067.24 200.959 1066.8 202.717 1065.92 204.279C1065.04 205.842 1063.92 207.258 1062.55 208.527C1061.28 209.699 1059.82 210.773 1058.16 211.75C1056.5 212.727 1054.93 213.557 1053.47 214.24L1052.59 212.482C1053.47 211.604 1054.05 210.529 1054.35 209.26C1054.74 207.99 1054.93 206.77 1054.93 205.598C1054.93 203.84 1054.64 202.082 1054.05 200.324C1053.57 198.469 1052.79 196.809 1051.71 195.344C1050.64 193.781 1049.32 192.512 1047.76 191.535C1046.29 190.559 1044.58 190.07 1042.63 190.07C1037.65 190.07 1033.16 191.438 1029.15 194.172C1025.15 196.906 1021.73 200.324 1018.9 204.426C1016.16 208.527 1014.02 213.02 1012.45 217.902C1010.99 222.688 1010.26 227.18 1010.26 231.379C1010.26 234.211 1010.5 237.092 1010.99 240.021C1011.48 242.951 1012.36 245.588 1013.62 247.932C1014.99 250.275 1016.75 252.229 1018.9 253.791C1021.14 255.256 1023.98 255.988 1027.39 255.988C1032.96 255.988 1038.09 254.475 1042.78 251.447C1047.46 248.322 1051.56 244.709 1055.08 240.607C1056.84 237.092 1058.74 233.771 1060.79 230.646C1062.84 227.424 1065.09 224.494 1067.53 221.857L1069.88 223.615C1066.75 229.377 1064.21 235.725 1062.26 242.658C1060.4 249.592 1058.94 256.77 1057.86 264.191C1056.89 271.516 1056.2 278.84 1055.81 286.164C1055.42 293.488 1055.23 300.422 1055.23 306.965C1055.23 309.992 1055.23 313.85 1055.23 318.537C1055.23 323.322 1055.42 328.4 1055.81 333.771C1056.2 339.24 1056.89 344.709 1057.86 350.178C1058.94 355.646 1060.45 360.578 1062.4 364.973C1064.46 369.367 1067.09 372.932 1070.31 375.666C1073.54 378.498 1077.59 379.914 1082.47 379.914C1085.79 379.914 1088.82 379.133 1091.55 377.57C1094.29 376.105 1096.58 373.859 1098.44 370.832L1101.66 373.908ZM1153.66 191.242C1153.66 192.316 1153.27 193.293 1152.49 194.172C1151.71 194.953 1150.78 195.344 1149.71 195.344C1148.83 195.344 1147.9 195.1 1146.93 194.611C1145.95 194.025 1144.83 193.391 1143.56 192.707C1142.38 192.023 1140.97 191.438 1139.31 190.949C1137.75 190.363 1135.94 190.07 1133.89 190.07C1129.1 190.07 1124.81 191.584 1121 194.611C1117.29 197.541 1114.11 201.203 1111.48 205.598C1108.94 209.992 1106.98 214.68 1105.62 219.66C1104.25 224.641 1103.57 229.133 1103.57 233.137C1103.57 235.969 1103.81 238.752 1104.3 241.486C1104.79 244.123 1105.62 246.564 1106.79 248.811C1108.06 250.959 1109.77 252.717 1111.92 254.084C1114.06 255.354 1116.8 255.988 1120.12 255.988C1123.63 255.988 1127 255.354 1130.23 254.084C1133.45 252.717 1136.48 250.959 1139.31 248.811C1139.41 245.686 1139.89 242.414 1140.77 238.996C1141.75 235.48 1142.97 232.062 1144.44 228.742C1145.9 225.324 1147.56 222.102 1149.42 219.074C1151.37 216.047 1153.37 213.361 1155.42 211.018L1157.33 212.189C1156.25 215.51 1155.47 218.928 1154.98 222.443C1154.49 225.959 1154.25 229.426 1154.25 232.844C1154.25 236.359 1154.54 239.68 1155.13 242.805C1155.71 245.93 1156.74 248.664 1158.21 251.008C1159.67 253.254 1161.67 255.061 1164.21 256.428C1166.75 257.697 1170.02 258.332 1174.03 258.332C1178.91 258.332 1183.4 257.209 1187.5 254.963C1191.6 252.717 1195.22 249.885 1198.34 246.467L1199.51 247.053C1197.76 250.471 1195.46 253.742 1192.63 256.867C1189.8 259.992 1186.62 262.824 1183.11 265.363C1179.69 267.805 1176.03 269.758 1172.12 271.223C1168.21 272.688 1164.36 273.42 1160.55 273.42C1155.18 273.42 1150.78 271.857 1147.37 268.732C1143.95 265.705 1141.6 261.848 1140.33 257.16C1136.23 261.262 1131.64 264.729 1126.56 267.561C1121.58 270.295 1116.31 271.662 1110.74 271.662C1106.64 271.662 1102.98 270.881 1099.76 269.318C1096.63 267.854 1094 265.852 1091.85 263.312C1089.7 260.773 1088.04 257.795 1086.87 254.377C1085.79 250.861 1085.26 247.199 1085.26 243.391C1085.26 238.996 1085.94 234.504 1087.31 229.914C1088.77 225.227 1090.72 220.637 1093.17 216.145C1095.71 211.652 1098.68 207.404 1102.1 203.4C1105.52 199.396 1109.23 195.881 1113.23 192.854C1117.34 189.826 1121.63 187.434 1126.12 185.676C1130.62 183.918 1135.21 183.039 1139.89 183.039C1140.97 183.039 1142.29 183.186 1143.85 183.479C1145.41 183.674 1146.93 184.064 1148.39 184.65C1149.86 185.236 1151.08 186.066 1152.05 187.141C1153.13 188.215 1153.66 189.582 1153.66 191.242ZM1284.91 247.053C1282.38 251.252 1279.05 255.012 1274.95 258.332C1270.95 261.555 1266.51 264.338 1261.62 266.682C1256.84 268.928 1251.81 270.637 1246.54 271.809C1241.36 273.078 1236.38 273.713 1231.59 273.713C1225.73 273.713 1220.27 272.834 1215.19 271.076C1210.21 269.318 1205.81 266.779 1202 263.459C1198.29 260.041 1195.36 255.988 1193.21 251.301C1191.16 246.516 1190.14 241.096 1190.14 235.041C1190.14 228.205 1191.36 221.516 1193.8 214.973C1196.34 208.43 1199.81 202.619 1204.2 197.541C1208.69 192.463 1213.97 188.41 1220.02 185.383C1226.17 182.258 1232.81 180.695 1239.94 180.695C1242.29 180.695 1244.63 180.939 1246.97 181.428C1249.32 181.916 1251.47 182.746 1253.42 183.918C1255.37 184.992 1256.94 186.457 1258.11 188.312C1259.38 190.168 1260.01 192.512 1260.01 195.344C1260.01 198.176 1259.28 200.666 1257.81 202.814C1256.35 204.865 1254.49 206.574 1252.25 207.941C1250 209.309 1247.56 210.432 1244.92 211.311C1242.38 212.092 1239.94 212.678 1237.6 213.068V211.018C1238.97 210.627 1240.43 210.09 1241.99 209.406C1243.65 208.723 1245.17 207.844 1246.54 206.77C1247.9 205.695 1249.03 204.426 1249.9 202.961C1250.88 201.496 1251.37 199.885 1251.37 198.127C1251.37 196.76 1251.03 195.637 1250.34 194.758C1249.76 193.781 1248.98 193 1248 192.414C1247.12 191.828 1246.1 191.389 1244.92 191.096C1243.75 190.803 1242.58 190.656 1241.41 190.656C1236.43 190.656 1231.94 191.779 1227.93 194.025C1224.03 196.174 1220.71 199.055 1217.97 202.668C1215.24 206.281 1213.14 210.334 1211.67 214.826C1210.3 219.318 1209.62 223.859 1209.62 228.449C1209.62 233.723 1210.4 238.459 1211.96 242.658C1213.62 246.76 1215.92 250.275 1218.85 253.205C1221.78 256.135 1225.34 258.381 1229.54 259.943C1233.74 261.506 1238.43 262.287 1243.61 262.287C1246.93 262.287 1250.44 261.945 1254.15 261.262C1257.96 260.48 1261.62 259.406 1265.14 258.039C1268.75 256.672 1272.17 255.012 1275.39 253.059C1278.62 251.105 1281.4 248.908 1283.74 246.467L1284.91 247.053ZM1394.48 245.588C1392.53 249.396 1390.29 253.059 1387.75 256.574C1385.21 260.09 1382.28 263.215 1378.96 265.949C1375.64 268.684 1371.93 270.832 1367.82 272.395C1363.72 274.055 1359.08 274.885 1353.91 274.885C1344.53 274.885 1336.82 272.736 1330.76 268.439C1324.81 264.143 1319.78 258.137 1315.68 250.422C1314.5 250.91 1313.33 251.35 1312.16 251.74C1311.09 252.033 1310.01 252.375 1308.94 252.766C1308.74 254.426 1308.55 255.939 1308.35 257.307C1308.16 258.674 1307.96 259.943 1307.77 261.115C1307.57 262.385 1307.33 263.752 1307.03 265.217C1306.74 266.682 1306.25 268.049 1305.57 269.318C1304.88 270.588 1303.96 271.613 1302.79 272.395C1301.61 273.273 1300 273.713 1297.95 273.713C1295.02 273.713 1292.97 272.785 1291.8 270.93C1290.63 269.172 1289.7 267.219 1289.02 265.07C1287.55 260.383 1286.18 254.719 1284.91 248.078C1283.74 241.438 1282.72 234.602 1281.84 227.57C1280.96 220.441 1280.28 213.41 1279.79 206.477C1279.3 199.543 1279.05 193.391 1279.05 188.02C1279.05 181.574 1279.25 174.787 1279.64 167.658C1280.03 160.432 1280.71 153.156 1281.69 145.832C1282.67 138.508 1283.99 131.281 1285.65 124.152C1287.4 116.926 1289.6 110.041 1292.24 103.498C1294.88 96.9551 1298 90.9004 1301.61 85.334C1305.32 79.6699 1309.67 74.7871 1314.65 70.6855C1316.9 68.8301 1319.44 67.2187 1322.27 65.8516C1325.2 64.4844 1328.08 63.8008 1330.91 63.8008C1332.08 63.8008 1333.4 64.0938 1334.87 64.6797C1336.43 65.168 1337.21 66.1445 1337.21 67.6094C1337.21 68.3906 1336.82 69.3184 1336.04 70.3926C1322.07 89.6309 1311.96 110.09 1305.71 131.77C1299.46 153.352 1296.34 176.252 1296.34 200.471C1296.34 210.432 1296.78 220.051 1297.66 229.328C1298.63 238.508 1299.9 248.127 1301.47 258.186C1301.86 253.107 1302.39 247.688 1303.08 241.926C1303.86 236.066 1304.88 230.305 1306.15 224.641C1307.52 218.977 1309.23 213.557 1311.28 208.381C1313.33 203.107 1315.87 198.469 1318.9 194.465C1321.93 190.461 1325.44 187.287 1329.45 184.943C1333.55 182.502 1338.33 181.281 1343.8 181.281C1349.56 181.281 1354.35 182.99 1358.16 186.408C1361.96 189.729 1363.87 194.318 1363.87 200.178C1363.87 203.498 1363.33 206.77 1362.26 209.992C1361.18 213.215 1359.72 216.291 1357.86 219.221C1356.11 222.053 1354.05 224.738 1351.71 227.277C1349.46 229.816 1347.12 232.014 1344.68 233.869C1341.16 236.604 1337.31 239.24 1333.11 241.779C1334.67 244.807 1336.43 247.688 1338.38 250.422C1340.33 253.059 1342.48 255.402 1344.83 257.453C1347.17 259.406 1349.76 260.969 1352.59 262.141C1355.52 263.312 1358.74 263.898 1362.26 263.898C1365.38 263.898 1368.41 263.41 1371.34 262.434C1374.37 261.359 1377.2 259.992 1379.84 258.332C1382.47 256.574 1384.91 254.572 1387.16 252.326C1389.5 249.982 1391.6 247.541 1393.46 245.002L1394.48 245.588ZM1336.62 199.738C1331.74 199.738 1327.74 201.301 1324.61 204.426C1321.49 207.453 1318.9 211.311 1316.85 215.998C1314.89 220.588 1313.38 225.666 1312.31 231.232C1311.23 236.799 1310.35 242.072 1309.67 247.053C1314.36 245.197 1318.8 242.951 1323 240.314C1327.3 237.58 1331.01 234.602 1334.13 231.379C1337.26 228.156 1339.75 224.738 1341.6 221.125C1343.46 217.414 1344.39 213.557 1344.39 209.553C1344.39 207.014 1343.7 204.768 1342.34 202.814C1341.07 200.764 1339.16 199.738 1336.62 199.738Z" fill="#E56D59"/>
</svg>
